<svg width="100" height="100" viewBox="0 0 100 100" fill="none" xmlns="http://www.w3.org/2000/svg">
  <path d="M6.017 4.313l55.333-4.087c6.797-.583 8.543-.19 12.817 2.917l17.663 12.443c2.913 2.14 3.883 2.723 3.883 5.053v68.243c0 4.277-1.553 6.807-6.99 7.193L24.467 99.967c-4.08.193-6.023-.39-8.16-3.113L3.3 79.94c-2.333-3.113-3.3-5.443-3.3-8.167V11.113c0-3.497 1.553-6.413 6.017-6.8z" fill="#fff"/>
  <path fill-rule="evenodd" clip-rule="evenodd" d="M61.35.227l-55.333 4.087C1.553 4.7 0 7.617 0 11.113v60.66c0 2.723.967 5.053 3.3 8.167l12.993 16.913c2.137 2.723 4.08 3.307 8.16 3.113l64.257-3.89c5.433-.387 6.99-2.917 6.99-7.193V20.64c0-2.21-.873-2.847-3.443-4.733L75.5 3.353C71.233.227 69.487-.363 62.69.22l-1.34.007zM25.723 19.01c-5.33.287-6.54.353-9.573-2.193L9.303 11.28c-.777-.78-.33-1.753 1.943-1.947l52.993-3.887c4.467-.393 6.8 1.167 8.543 2.527l8.543 6.22c.39.197.97 1.36 0 1.36l-54.84 3.267-.76.193zm-7.573 74.24V29.577c0-2.527.78-3.697 3.107-3.893l58.823-3.497c2.14-.193 3.107 1.167 3.107 3.693v63.48c0 2.527-.39 4.667-3.883 4.863l-56.487 3.3c-3.5.193-4.667-.967-4.667-3.5zm55.333-61.14c.39 1.75 0 3.5-1.75 3.7l-2.723.507v46.903c-2.333 1.263-4.473 1.943-6.223 1.943-2.913 0-3.693-.917-5.833-3.5L37.527 49.46v29.98l5.637 1.263s0 3.5-4.86 3.5l-13.38.777c-.393-.78 0-2.723 1.36-3.11l3.497-.943V38.503L25.52 37.93c-.393-1.75.583-4.277 3.3-4.473l14.353-.97 22.283 34.093V39.86l-4.667-.583c-.39-2.143 1.163-3.7 3.103-3.89l13.44-.777z" fill="#000"/>
</svg>
